<svg xmlns="http://www.w3.org/2000/svg" viewBox="0 0 64 64" width="128" height="128" fill="none" stroke="#1a1a1a" stroke-width="3" stroke-linecap="round" stroke-linejoin="round" role="img" aria-label="Café">
  <title>Café</title>
  <!-- Vapor -->
  <path d="M22 8c2 4-2 6 0 10" />
  <path d="M30 6c2 4-2 6 0 10" />
  <path d="M38 8c2 4-2 6 0 10" />
  <!-- Taza -->
  <path d="M14 22h32v18a10 10 0 0 1-10 10H24a10 10 0 0 1-10-10V22z" fill="#fff" />
  <!-- Asa -->
  <path d="M46 26h6a6 6 0 0 1 0 12h-6" />
  <!-- Plato -->
  <path d="M10 54h44" />
</svg>
