<?xml version="1.0" encoding="UTF-8"?>
<!--
  Volvix Icon Pack — sprite SVG con los 6 logos demo por giro.
  Uso:  <svg class="icon"><use href="/logos-demo/volvix-icon-pack.svg#icon-cafe" /></svg>
  Cada símbolo conserva su viewBox (0 0 64 64) y aria-label individual.
-->
<svg xmlns="http://www.w3.org/2000/svg" style="display:none" aria-hidden="true">
  <symbol id="icon-cafe" viewBox="0 0 64 64">
    <title>Café</title>
    <g fill="none" stroke="currentColor" stroke-width="3" stroke-linecap="round" stroke-linejoin="round">
      <path d="M22 8c2 4-2 6 0 10" />
      <path d="M30 6c2 4-2 6 0 10" />
      <path d="M38 8c2 4-2 6 0 10" />
      <path d="M14 22h32v18a10 10 0 0 1-10 10H24a10 10 0 0 1-10-10V22z" />
      <path d="M46 26h6a6 6 0 0 1 0 12h-6" />
      <path d="M10 54h44" />
    </g>
  </symbol>
  <symbol id="icon-restaurant" viewBox="0 0 64 64">
    <title>Restaurante</title>
    <g fill="none" stroke="currentColor" stroke-width="3" stroke-linecap="round" stroke-linejoin="round">
      <path d="M18 6v22" />
      <path d="M14 6v10" />
      <path d="M22 6v10" />
      <path d="M26 6v10" />
      <path d="M14 16h12v6a4 4 0 0 1-4 4h-4a4 4 0 0 1-4-4v-6z" />
      <path d="M20 26v32" />
      <path d="M46 6c-4 0-6 4-6 10v18h6V6z" />
      <path d="M46 34v24" />
    </g>
  </symbol>
  <symbol id="icon-abarrotes" viewBox="0 0 64 64">
    <title>Abarrotes</title>
    <g fill="none" stroke="currentColor" stroke-width="3" stroke-linecap="round" stroke-linejoin="round">
      <path d="M6 10h6l4 6" />
      <path d="M16 16h40l-6 24H22L16 16z" />
      <path d="M22 22h32" />
      <path d="M24 30h28" />
      <circle cx="26" cy="50" r="4" />
      <circle cx="46" cy="50" r="4" />
    </g>
  </symbol>
  <symbol id="icon-farmacia" viewBox="0 0 64 64">
    <title>Farmacia</title>
    <g fill="none" stroke="#c0392b" stroke-width="3" stroke-linecap="round" stroke-linejoin="round">
      <rect x="8" y="8" width="48" height="48" rx="8" />
      <rect x="26" y="14" width="12" height="36" rx="2" fill="#c0392b" />
      <rect x="14" y="26" width="36" height="12" rx="2" fill="#c0392b" />
    </g>
  </symbol>
  <symbol id="icon-ropa" viewBox="0 0 64 64">
    <title>Ropa</title>
    <g fill="none" stroke="currentColor" stroke-width="3" stroke-linecap="round" stroke-linejoin="round">
      <path d="M22 8l-14 8 4 8 8-4v32h24V20l8 4 4-8L42 8" />
      <path d="M22 8l10 10l10-10" />
    </g>
  </symbol>
  <symbol id="icon-barberia" viewBox="0 0 64 64">
    <title>Barbería</title>
    <g fill="none" stroke="currentColor" stroke-width="3" stroke-linecap="round" stroke-linejoin="round">
      <path d="M50 6L20 36" />
      <path d="M50 58L20 28" />
      <circle cx="14" cy="22" r="8" />
      <circle cx="14" cy="42" r="8" />
      <circle cx="22" cy="32" r="2" fill="currentColor" />
    </g>
  </symbol>
</svg>
